<svg width="1480" height="1069" viewBox="0 0 1480 1069" fill="none" xmlns="http://www.w3.org/2000/svg">
<g clip-path="url(#clip0_39_121)">
<path d="M155.239 617.469C71.3031 577.038 39.2115 473.944 85.37 393.016C130.965 313.077 234.239 287.665 311.723 337.319L697.213 584.356C756.738 622.501 776.017 700.549 741.102 762.024C706.548 822.862 630.766 846.527 567.731 816.164L155.239 617.469Z" fill="#FCB245"/>
<circle cx="231" cy="487" r="73.5" stroke="#F1A501" stroke-width="19"/>
<path d="M319.303 338.666C267.233 261.409 291.541 156.207 372.225 109.624C451.923 63.6103 553.911 93.776 595.756 175.74L803.944 583.525C836.09 646.492 813.358 723.605 752.196 759.065C691.666 794.158 614.298 776.355 575.194 718.336L319.303 338.666Z" fill="#FDBD4E"/>
<circle cx="453" cy="242" r="73.5" stroke="#F1A501" stroke-width="19"/>
<path d="M1159.82 338.666C1211.89 261.409 1187.58 156.207 1106.9 109.624C1027.2 63.6103 925.209 93.776 883.364 175.74L675.176 583.525C643.03 646.492 665.762 723.605 726.924 759.065C787.453 794.158 864.822 776.355 903.926 718.336L1159.82 338.666Z" fill="#FBBC4D"/>
<circle cx="1021" cy="242" r="73.5" stroke="#F1A501" stroke-width="19"/>
<path d="M1323.88 617.469C1407.82 577.038 1439.91 473.944 1393.75 393.016C1348.15 313.077 1244.88 287.665 1167.4 337.319L781.907 584.356C722.382 622.501 703.102 700.549 738.018 762.024C772.572 822.862 848.354 846.527 911.389 816.164L1323.88 617.469Z" fill="#FDB445"/>
<circle cx="1256" cy="465" r="73.5" stroke="#F1A501" stroke-width="19"/>
<path d="M625.5 972C678.796 972 722 1015.2 722 1068.5C722 1068.67 721.998 1068.83 721.997 1069H529.003C529.002 1068.83 529 1068.67 529 1068.5C529 1015.2 572.205 972 625.5 972Z" fill="#F6D200"/>
<path d="M868.5 972C921.795 972 965 1015.2 965 1068.5C965 1068.67 964.998 1068.83 964.997 1069H772.003C772.002 1068.83 772 1068.67 772 1068.5C772 1015.2 815.205 972 868.5 972Z" fill="#F6D200"/>
<ellipse cx="748.5" cy="659" rx="229.5" ry="255" fill="#F6D200"/>
<rect x="677" y="270" width="143" height="332" rx="71.5" fill="#EFAD01"/>
<circle cx="748.5" cy="179.5" r="179.5" fill="#F6D200"/>
<path d="M749 187C707.5 187 675.455 210 675 234C674.545 258 720 333 749 333C778 333 820.999 258 820.999 231C820.999 210 790.501 187 749 187Z" fill="#F58424"/>
<path d="M619.5 141.5C619.5 141.5 629.5 175.5 662.5 175.5C695.5 175.5 706 141.5 706 141.5" stroke="#B77F02" stroke-width="20" stroke-linecap="round"/>
<path d="M788 141.5C788 141.5 798 175.5 831 175.5C864 175.5 874.5 141.5 874.5 141.5" stroke="#B77F02" stroke-width="20" stroke-linecap="round"/>
</g>
<defs>
<clipPath id="clip0_39_121">
<rect width="1479.12" height="1069" fill="white"/>
</clipPath>
</defs>
</svg>
