<svg width="1202" height="1037" viewBox="0 0 1202 1037" fill="none" xmlns="http://www.w3.org/2000/svg">
<g clip-path="url(#clip0_40_245)">
<circle cx="1110" cy="902" r="92" fill="#F33833"/>
<circle cx="997" cy="902" r="92" fill="#8B0D12"/>
<circle cx="884" cy="902" r="92" fill="#D51415"/>
<path d="M418.518 131.55C448.226 75.5843 528.423 75.6077 558.098 131.591L914.514 804.002C942.403 856.617 904.263 920 844.714 920H131.374C71.8034 920 33.6653 856.578 61.595 803.961L418.518 131.55Z" fill="#F33833"/>
<rect x="255" y="951" width="176" height="86" rx="43" fill="url(#paint0_linear_40_245)"/>
<rect x="545" y="951" width="176" height="86" rx="43" fill="url(#paint1_linear_40_245)"/>
<rect x="150" y="289" width="677" height="235" rx="117.5" fill="#9F1217"/>
<circle cx="355.5" cy="406.5" r="100.5" fill="white"/>
<mask id="mask0_40_245" style="mask-type:alpha" maskUnits="userSpaceOnUse" x="255" y="306" width="201" height="201">
<circle cx="355.5" cy="406.5" r="100.5" fill="white"/>
</mask>
<g mask="url(#mask0_40_245)">
<circle cx="355.5" cy="406.5" r="25.5" fill="black"/>
</g>
<circle cx="633.5" cy="406.5" r="100.5" fill="white"/>
<mask id="mask1_40_245" style="mask-type:alpha" maskUnits="userSpaceOnUse" x="533" y="306" width="201" height="201">
<circle cx="633.5" cy="406.5" r="100.5" fill="white"/>
</mask>
<g mask="url(#mask1_40_245)">
<circle cx="633.5" cy="406.5" r="25.5" fill="black"/>
</g>
<path d="M553 559C553 594.899 523.899 624 488 624C452.101 624 423 594.899 423 559H553Z" fill="#A00E11"/>
<rect x="460" y="669" width="276.973" height="157.082" rx="19" transform="rotate(30 460 669)" fill="#449F4F"/>
<rect x="467.01" y="694.911" width="239.126" height="120.585" transform="rotate(30 467.01 694.911)" fill="#67C571"/>
<circle cx="467.5" cy="699.5" r="20.5" fill="#449F4F"/>
<circle cx="412.5" cy="796.5" r="20.5" fill="#449F4F"/>
<circle cx="612.5" cy="913.5" r="20.5" fill="#449F4F"/>
<circle cx="540.5" cy="806.5" r="30.5" fill="#449F4F"/>
<circle cx="671.5" cy="816.5" r="20.5" fill="#449F4F"/>
<rect x="535.29" y="735.761" width="176" height="86" rx="43" transform="rotate(-30 535.29 735.761)" fill="url(#paint2_linear_40_245)"/>
</g>
<defs>
<linearGradient id="paint0_linear_40_245" x1="431" y1="994" x2="255" y2="994" gradientUnits="userSpaceOnUse">
<stop offset="0.5" stop-color="#D51317"/>
<stop offset="0.5" stop-color="#F33833"/>
</linearGradient>
<linearGradient id="paint1_linear_40_245" x1="721" y1="994" x2="545" y2="994" gradientUnits="userSpaceOnUse">
<stop offset="0.5" stop-color="#D51317"/>
<stop offset="0.5" stop-color="#F33833"/>
</linearGradient>
<linearGradient id="paint2_linear_40_245" x1="711.29" y1="778.761" x2="535.29" y2="778.761" gradientUnits="userSpaceOnUse">
<stop offset="0.5" stop-color="#D51317"/>
<stop offset="0.5" stop-color="#F33833"/>
</linearGradient>
<clipPath id="clip0_40_245">
<rect width="1202" height="1037" fill="white"/>
</clipPath>
</defs>
</svg>
